<svg id="alarm-clock" xmlns="http://www.w3.org/2000/svg" width="38.023" height="38.042" viewBox="0 0 38.023 38.042">
  <path id="Path_23" data-name="Path 23" d="M48.4,64A16.6,16.6,0,0,0,35.11,90.587L32.14,93.557a1.13,1.13,0,0,0,0,1.708L33.774,96.9a1.13,1.13,0,0,0,1.708,0l2.971-2.971a16.488,16.488,0,0,0,19.9,0L61.326,96.9a1.13,1.13,0,0,0,1.708,0l1.634-1.634a1.13,1.13,0,0,0,0-1.708L61.7,90.587A16.6,16.6,0,0,0,48.4,64Zm6.164,22.428a1.608,1.608,0,0,1-1.411.743,1.774,1.774,0,0,1-1.04-.371l-4.753-3.565a1.69,1.69,0,0,1-.743-1.411V72.912a1.782,1.782,0,1,1,3.565,0v8.021l4.01,3.045A1.71,1.71,0,0,1,54.568,86.428Z" transform="translate(-29.392 -59.247)" fill="#0b3a42" opacity="0.4"/>
  <path id="Path_24" data-name="Path 24" d="M20.794,21.685V13.665a1.782,1.782,0,0,0-3.565,0v8.912a1.69,1.69,0,0,0,.743,1.411l4.753,3.565a1.774,1.774,0,0,0,1.04.371A1.777,1.777,0,0,0,24.8,24.73ZM0,7.129a7.1,7.1,0,0,0,1.114,3.787L11.957,1.931A7.052,7.052,0,0,0,7.129,0,7.131,7.131,0,0,0,0,7.129ZM30.894,0a7.052,7.052,0,0,0-4.827,1.931l10.843,8.986A7.1,7.1,0,0,0,30.894,0Z" fill="#0b3a42"/>
</svg>
