<svg xmlns="http://www.w3.org/2000/svg" width="40" height="35.561" viewBox="0 0 40 35.561">
  <g id="analytics" transform="translate(0.009 0.723)">
    <path id="Path_19" data-name="Path 19" d="M35.407,5.752,28.8,11.042a3.375,3.375,0,0,1,.049.492,3.329,3.329,0,1,1-6.658,0,3.29,3.29,0,0,1,.049-.492l-6.612-5.29a3.129,3.129,0,0,1-2.057.11L6.527,12.9a3.322,3.322,0,1,1-3.206-2.477,3.32,3.32,0,0,1,.852.123l7.04-7.04a3.32,3.32,0,0,1-.123-.852,3.329,3.329,0,1,1,6.658,0,3.29,3.29,0,0,1-.049.492l6.611,5.289a3.225,3.225,0,0,1,2.411,0l6.613-5.29a3.375,3.375,0,0,1-.049-.492,3.354,3.354,0,1,1,2.124,3.1Z" transform="translate(0)" fill="#00d0d8" opacity="0.4"/>
    <path id="Path_20" data-name="Path 20" d="M27.743,200.878H23.3a1.11,1.11,0,0,0-1.11,1.11v11.1a1.11,1.11,0,0,0,1.11,1.11h4.439a1.11,1.11,0,0,0,1.11-1.11v-11.1A1.11,1.11,0,0,0,27.743,200.878ZM38.84,192H34.4a1.11,1.11,0,0,0-1.11,1.11v19.975a1.11,1.11,0,0,0,1.11,1.11H38.84a1.11,1.11,0,0,0,1.11-1.11V193.11A1.11,1.11,0,0,0,38.84,192Zm-22.194,0H12.207a1.11,1.11,0,0,0-1.11,1.11v19.975a1.11,1.11,0,0,0,1.11,1.11h4.439a1.11,1.11,0,0,0,1.11-1.11V193.11A1.11,1.11,0,0,0,16.646,192Zm-11.1,11.1H1.11A1.11,1.11,0,0,0,0,204.207v8.878a1.11,1.11,0,0,0,1.11,1.11H5.549a1.11,1.11,0,0,0,1.11-1.11v-8.878A1.11,1.11,0,0,0,5.549,203.1Z" transform="translate(-0.008 -179.356)" fill="#00d0d8"/>
  </g>
</svg>
