<svg xmlns="http://www.w3.org/2000/svg" width="59.263" height="35.337" viewBox="0 0 59.263 35.337">
  <g id="arrows-retweet" transform="translate(4.5 -64)">
    <path id="Path_27" data-name="Path 27" d="M10.178,90.5V74.031l4.233,4.233a1.4,1.4,0,0,0,2.117,0l2.117-2.024a1.558,1.558,0,0,0,0-2.117L9.349,64.828A2.915,2.915,0,0,0,7.233,64a2.706,2.706,0,0,0-2.025.828l-9.294,9.294a1.558,1.558,0,0,0,0,2.117l2.117,2.024a1.3,1.3,0,0,0,2.025,0l4.233-4.233V93.447a2.965,2.965,0,0,0,2.945,2.945H30.7L24.9,90.5Z" fill="#0b3a42" opacity="0.4"/>
    <path id="Path_28" data-name="Path 28" d="M291.785,116.153l-2.025-2.025a1.4,1.4,0,0,0-2.117,0l-4.233,4.233V98.945A2.907,2.907,0,0,0,280.466,96H257l5.8,5.889h14.724v16.472l-4.233-4.233a1.4,1.4,0,0,0-2.117,0l-2.025,2.025a1.4,1.4,0,0,0,0,2.117l9.2,9.294a3.071,3.071,0,0,0,2.117.828,3.242,3.242,0,0,0,2.117-.828l9.2-9.294A1.558,1.558,0,0,0,291.785,116.153Z" transform="translate(-237.436 -29.055)" fill="#0b3a42"/>
  </g>
</svg>
