<svg xmlns="http://www.w3.org/2000/svg" width="40.063" height="45.787" viewBox="0 0 40.063 45.787">
  <path id="building" d="M38.633,41.494H37.2V2.146A2.176,2.176,0,0,0,35.056,0H5.008A2.176,2.176,0,0,0,2.862,2.146V41.494H1.431A1.413,1.413,0,0,0,0,42.925v1.431a1.413,1.413,0,0,0,1.431,1.431H17.17V35.771A1.413,1.413,0,0,1,18.6,34.34h2.862a1.413,1.413,0,0,1,1.431,1.431V45.787H38.633a1.413,1.413,0,0,0,1.431-1.431V42.925A1.413,1.413,0,0,0,38.633,41.494ZM17.17,27.186a1.413,1.413,0,0,1-1.431,1.431H12.878a1.413,1.413,0,0,1-1.431-1.431V24.324a1.413,1.413,0,0,1,1.431-1.431h2.862a1.413,1.413,0,0,1,1.431,1.431Zm0-8.585a1.413,1.413,0,0,1-1.431,1.431H12.878A1.413,1.413,0,0,1,11.447,18.6V15.739a1.413,1.413,0,0,1,1.431-1.431h2.862a1.413,1.413,0,0,1,1.431,1.431Zm0-8.585a1.413,1.413,0,0,1-1.431,1.431H12.878a1.413,1.413,0,0,1-1.431-1.431V7.154a1.413,1.413,0,0,1,1.431-1.431h2.862A1.413,1.413,0,0,1,17.17,7.154Zm11.447,17.17a1.413,1.413,0,0,1-1.431,1.431H24.324a1.413,1.413,0,0,1-1.431-1.431V24.324a1.413,1.413,0,0,1,1.431-1.431h2.862a1.413,1.413,0,0,1,1.431,1.431Zm0-8.585a1.413,1.413,0,0,1-1.431,1.431H24.324A1.413,1.413,0,0,1,22.893,18.6V15.739a1.413,1.413,0,0,1,1.431-1.431h2.862a1.413,1.413,0,0,1,1.431,1.431Zm0-8.585a1.413,1.413,0,0,1-1.431,1.431H24.324a1.413,1.413,0,0,1-1.431-1.431V7.154a1.413,1.413,0,0,1,1.431-1.431h2.862a1.413,1.413,0,0,1,1.431,1.431Z" fill="#0b3a42"/>
</svg>
