<svg xmlns="http://www.w3.org/2000/svg" width="55.568" height="44.398" viewBox="0 0 55.568 44.398">
  <g id="code" transform="translate(5.25 -0.128)">
    <path id="Path_33" data-name="Path 33" d="M239.733.9,237.044.2a1.258,1.258,0,0,0-1.648.954L224.2,42.108a1.258,1.258,0,0,0,.954,1.648l2.689.694A1.258,1.258,0,0,0,229.5,43.5l11.192-40.95A1.258,1.258,0,0,0,239.733.9Z" transform="translate(-209.478)" fill="#00d0d8" opacity="0.4"/>
    <path id="Path_34" data-name="Path 34" d="M11.169,113.922,9.781,112.36a2.15,2.15,0,0,0-2.95-.087L-4.795,123.2a1.418,1.418,0,0,0,0,2.082L6.831,136.218a2.15,2.15,0,0,0,2.95-.087l1.388-1.562a2.071,2.071,0,0,0-.087-2.95l-7.808-7.374,7.808-7.374A2.071,2.071,0,0,0,11.169,113.922ZM49.863,123.2,38.237,112.273a2.15,2.15,0,0,0-2.95.087L33.9,113.922a2,2,0,0,0,.087,2.95l7.808,7.374-7.808,7.374a2,2,0,0,0-.087,2.95l1.388,1.562a2.15,2.15,0,0,0,2.95.087l11.626-10.931A1.418,1.418,0,0,0,49.863,123.2Z" transform="translate(0 -101.919)" fill="#00d0d8"/>
  </g>
</svg>
