<svg xmlns="http://www.w3.org/2000/svg" width="40.782" height="40.782" viewBox="0 0 40.782 40.782">
  <g id="globe" transform="translate(-0.003 -8)">
    <path id="Path_17" data-name="Path 17" d="M27.995,33.653h-15.2a47.613,47.613,0,0,1,0-10.524h15.2a47.278,47.278,0,0,1,.292,5.262A47.276,47.276,0,0,1,27.995,33.653ZM13.174,20.5H27.613c-.034-.19-.069-.38-.105-.568a30.025,30.025,0,0,0-2.066-6.724,13.012,13.012,0,0,0-2.741-4.1A3.506,3.506,0,0,0,20.393,8a3.489,3.489,0,0,0-2.3,1.108,12.943,12.943,0,0,0-2.741,4.1,30.11,30.11,0,0,0-2.066,6.724C13.24,20.118,13.208,20.308,13.174,20.5ZM9.869,28.391a49.99,49.99,0,0,1,.275-5.262H.689a20.516,20.516,0,0,0,0,10.524h9.456a49.992,49.992,0,0,1-.275-5.262ZM40.1,23.129H30.64a50,50,0,0,1,.278,5.262,49.991,49.991,0,0,1-.275,5.262H40.1a20.516,20.516,0,0,0,0-10.524ZM39.2,20.5A20.442,20.442,0,0,0,25.95,8.766C27.934,11.48,29.477,15.6,30.287,20.5ZM25.95,48.016A20.44,20.44,0,0,0,39.2,36.284H30.287C29.477,41.179,27.934,45.3,25.95,48.016Zm1.663-11.731H13.174c.034.19.069.38.105.568a30.025,30.025,0,0,0,2.066,6.724,13,13,0,0,0,2.741,4.1,3.487,3.487,0,0,0,2.306,1.108A3.506,3.506,0,0,0,22.7,47.674a12.943,12.943,0,0,0,2.741-4.1,29.9,29.9,0,0,0,2.066-6.724C27.547,36.664,27.579,36.474,27.613,36.284ZM14.837,8.766A20.44,20.44,0,0,0,1.588,20.5H10.5C11.31,15.6,12.853,11.48,14.837,8.766ZM1.588,36.284A20.44,20.44,0,0,0,14.837,48.016C12.853,45.3,11.31,41.179,10.5,36.284Z" transform="translate(0 0)" fill="#0b3a42" opacity="0.4"/>
    <path id="Path_18" data-name="Path 18" d="M38.6,28.391a49.991,49.991,0,0,0-.275-5.262h9.456a20.2,20.2,0,0,0-.9-2.631H37.967c-.811-4.895-2.353-9.018-4.337-11.731A20.41,20.41,0,0,0,28.073,8a3.506,3.506,0,0,1,2.306,1.108,12.943,12.943,0,0,1,2.741,4.1,29.9,29.9,0,0,1,2.066,6.724c.036.188.072.378.105.568H20.854c.034-.19.069-.38.105-.568a30.025,30.025,0,0,1,2.066-6.724,12.947,12.947,0,0,1,2.745-4.1A3.489,3.489,0,0,1,28.073,8a20.41,20.41,0,0,0-5.557.766C20.532,11.48,18.99,15.6,18.179,20.5H9.268a20.2,20.2,0,0,0-.9,2.631h9.456a50.479,50.479,0,0,0,0,10.524H8.37a20.2,20.2,0,0,0,.9,2.631h8.911c.811,4.895,2.353,9.018,4.337,11.731a20.41,20.41,0,0,0,5.557.766,3.506,3.506,0,0,1-2.306-1.108,12.943,12.943,0,0,1-2.741-4.1,29.9,29.9,0,0,1-2.066-6.724c-.036-.188-.072-.378-.105-.568H35.292c-.034.19-.069.38-.105.568a30.025,30.025,0,0,1-2.066,6.724,13,13,0,0,1-2.741,4.1,3.487,3.487,0,0,1-2.306,1.108,20.41,20.41,0,0,0,5.557-.766c1.984-2.713,3.526-6.837,4.337-11.731h8.911a20.2,20.2,0,0,0,.9-2.631H38.32a49.773,49.773,0,0,0,.277-5.262Zm-2.922,5.262h-15.2a47.613,47.613,0,0,1,0-10.524h15.2a47.278,47.278,0,0,1,.292,5.262,47.275,47.275,0,0,1-.292,5.262Z" transform="translate(-7.679)" fill="#0b3a42"/>
  </g>
</svg>
