<svg id="Iconly_Bulk_Arrow_-_Down_2" data-name="Iconly/Bulk/Arrow - Down 2" xmlns="http://www.w3.org/2000/svg" width="24" height="24" viewBox="0 0 24 24">
  <g id="Arrow_-_Down_2" data-name="Arrow - Down 2" transform="translate(6 7)">
    <path id="Fill_1" data-name="Fill 1" d="M4.867.214,9.086,7.062a.435.435,0,0,1-.026.493,13.057,13.057,0,0,1-1.436,1.62,5.369,5.369,0,0,1-.559.479A1.723,1.723,0,0,1,6.006,10a1.855,1.855,0,0,1-1.14-.368c-.057-.056-.308-.268-.513-.468A21.777,21.777,0,0,1,.33,3.341,4.49,4.49,0,0,1,0,2.161a1.938,1.938,0,0,1,.217-.9,1.866,1.866,0,0,1,.9-.79A9.271,9.271,0,0,1,2.188.213,17.671,17.671,0,0,1,4.457,0a.463.463,0,0,1,.41.214" transform="translate(0 0)" fill="#747576"/>
    <path id="Fill_4" data-name="Fill 4" d="M.065.668A.443.443,0,0,1,.476,0C1.318.037,2.06.1,2.612.175A7.427,7.427,0,0,1,3.934.521,1.778,1.778,0,0,1,4.926,2.1v.055a4.5,4.5,0,0,1-.41,1.326,13.808,13.808,0,0,1-.894,1.685.459.459,0,0,1-.778.007Z" transform="translate(7.074 0.005)" fill="#747576" opacity="0.4"/>
  </g>
</svg>
