<svg id="Iconly_Bulk_Arrow_-_Left_2" data-name="Iconly/Bulk/Arrow - Left 2" xmlns="http://www.w3.org/2000/svg" width="20" height="20" viewBox="0 0 20 20">
  <g id="Arrow_-_Left_2" data-name="Arrow - Left 2" transform="translate(14.167 5) rotate(90)">
    <path id="Fill_1" data-name="Fill 1" d="M4.056.179,7.572,5.885A.362.362,0,0,1,7.55,6.3a10.881,10.881,0,0,1-1.2,1.35,4.475,4.475,0,0,1-.466.4,1.436,1.436,0,0,1-.883.288,1.546,1.546,0,0,1-.95-.307c-.048-.046-.257-.223-.428-.39A18.148,18.148,0,0,1,.275,2.785,3.741,3.741,0,0,1,0,1.8,1.615,1.615,0,0,1,.181,1.05,1.555,1.555,0,0,1,.931.391,7.726,7.726,0,0,1,1.823.178,14.726,14.726,0,0,1,3.714,0a.385.385,0,0,1,.342.178" transform="translate(0 0)" fill="#747576"/>
    <path id="Fill_4" data-name="Fill 4" d="M.054.556A.369.369,0,0,1,.4,0c.7.03,1.32.082,1.78.146a6.189,6.189,0,0,1,1.1.288A1.482,1.482,0,0,1,4.1,1.751V1.8a3.751,3.751,0,0,1-.342,1.1,11.507,11.507,0,0,1-.745,1.4.383.383,0,0,1-.648.006Z" transform="translate(5.895 0.004)" fill="#747576" opacity="0.4"/>
  </g>
</svg>
