<svg xmlns="http://www.w3.org/2000/svg" width="54.57" height="38.199" viewBox="0 0 54.57 38.199">
  <g id="laptop-code" transform="translate(0 -32)">
    <path id="Path_31" data-name="Path 31" d="M10.914,37.457H43.656V59.285h5.457V36.093A4.15,4.15,0,0,0,45.02,32H9.55a4.15,4.15,0,0,0-4.093,4.093V59.285h5.457ZM53.206,62.013H1.364A1.347,1.347,0,0,0,0,63.378v1.364A5.5,5.5,0,0,0,5.457,70.2H49.113a5.5,5.5,0,0,0,5.457-5.457V63.378A1.347,1.347,0,0,0,53.206,62.013Z" fill="#00d0d8" opacity="0.4"/>
    <path id="Path_32" data-name="Path 32" d="M128,96v21.828h32.742V96Zm9.72,13.131a1.648,1.648,0,0,1,0,2.387,1.648,1.648,0,0,1-2.387,0l-4.093-4.093a1.648,1.648,0,0,1,0-2.387l4.093-4.093a1.688,1.688,0,0,1,2.387,2.387l-2.9,2.9Zm10.658-8.1-4.775,12.96a1.749,1.749,0,0,1-1.62,1.108,1.451,1.451,0,0,1-.6-.085,1.774,1.774,0,0,1-1.023-2.217l4.775-12.96a1.726,1.726,0,1,1,3.24,1.194Zm9.123,6.395-4.093,4.093a1.648,1.648,0,0,1-2.387,0,1.648,1.648,0,0,1,0-2.387l2.9-2.9-2.9-2.9a1.688,1.688,0,1,1,2.387-2.387l4.093,4.093A1.648,1.648,0,0,1,157.5,107.426Z" transform="translate(-117.086 -58.543)" fill="#00d0d8"/>
  </g>
</svg>
