<svg xmlns="http://www.w3.org/2000/svg" width="30.833" height="29.292" viewBox="0 0 30.833 29.292"><path d="M6.675,29.292A6.6,6.6,0,0,1,0,22.779a1.141,1.141,0,0,1,1.156-1.127,1.141,1.141,0,0,1,1.156,1.127,4.316,4.316,0,0,0,4.364,4.257h7.319a4.3,4.3,0,0,0,4.35-4.242V21.416a1.156,1.156,0,0,1,2.312,0v1.378a6.588,6.588,0,0,1-6.661,6.5Zm17.8-9.588a1.108,1.108,0,0,1,0-1.6l2.4-2.334H11.638a1.129,1.129,0,1,1,0-2.257H29.677a1.156,1.156,0,0,1,1.068.7,1.111,1.111,0,0,1-.253,1.231l-4.387,4.261a1.176,1.176,0,0,1-1.634,0ZM0,17.65V6.5A6.589,6.589,0,0,1,6.663,0h7.316a6.6,6.6,0,0,1,6.677,6.513V7.877a1.156,1.156,0,0,1-2.312,0V6.513a4.315,4.315,0,0,0-4.365-4.257H6.663A4.3,4.3,0,0,0,2.313,6.5V17.65a1.143,1.143,0,0,1-1.157,1.128A1.143,1.143,0,0,1,0,17.65Zm25.583-5.4-1.107-1.067a1.107,1.107,0,0,1-.007-1.594A1.172,1.172,0,0,1,26.1,9.585l1.106,1.066a1.108,1.108,0,0,1,.008,1.6,1.176,1.176,0,0,1-1.634.008Z" fill="#200e32"/></svg>