<svg xmlns="http://www.w3.org/2000/svg" width="46.712" height="41.522" viewBox="0 0 46.712 41.522">
  <g id="money-check-pen" transform="translate(-32)">
    <path id="Path_21" data-name="Path 21" d="M76.928,128.649l-1.054.973L65.737,139.84a3.862,3.862,0,0,1-2.757,1.135H55.356v-7.623a3.862,3.862,0,0,1,1.135-2.757l2.6-2.6H35.893A3.947,3.947,0,0,0,32,131.893v23.356a3.947,3.947,0,0,0,3.893,3.893H74.82a3.947,3.947,0,0,0,3.893-3.893V131.893A3.819,3.819,0,0,0,76.928,128.649Zm-38.44,9.732H48.868a1.3,1.3,0,0,1,0,2.6H38.488a1.3,1.3,0,0,1,0-2.6Zm33.737,10.381H38.488a1.3,1.3,0,0,1,0-2.6H72.225a1.3,1.3,0,0,1,0,2.6Z" transform="translate(0 -117.619)" fill="#0b3a42" opacity="0.4"/>
    <path id="Path_22" data-name="Path 22" d="M117.167,14.76a1.343,1.343,0,0,0-.405.973v5.028h5.028a1.343,1.343,0,0,0,.973-.405L132.9,10.137l-5.515-5.515Zm19.788-11.6-2.6-2.6a2.161,2.161,0,0,0-2.92,0l-2.271,2.271,5.515,5.515,2.19-2.271A2.135,2.135,0,0,0,136.954,3.163ZM97.3,23.356h10.381a1.3,1.3,0,0,0,0-2.6H97.3a1.3,1.3,0,0,0,0,2.6Zm33.737,5.19H97.3a1.3,1.3,0,0,0,0,2.6h33.737a1.3,1.3,0,1,0,0-2.6Z" transform="translate(-58.81 0)" fill="#0b3a42"/>
  </g>
</svg>
