<svg xmlns="http://www.w3.org/2000/svg" width="26.209" height="30.833" viewBox="0 0 26.209 30.833"><path d="M8.756,28.7a1.165,1.165,0,0,1,.158-1.648,1.186,1.186,0,0,1,1.661.157,3.182,3.182,0,0,0,.644.637,3.064,3.064,0,0,0,4.28-.637h.014a1.188,1.188,0,0,1,1.662-.157,1.164,1.164,0,0,1,.157,1.648,5.382,5.382,0,0,1-8.576,0ZM6.226,24.417a7.452,7.452,0,0,1-4.733-2.374A6.289,6.289,0,0,1,0,17.824v-.189a6.486,6.486,0,0,1,1.122-3.243l.11-.136A5.909,5.909,0,0,0,2.6,11.544V8.75a1.179,1.179,0,0,1,2.257.244v2.794a.664.664,0,0,1,0,.148A8.109,8.109,0,0,1,2.97,15.708a3.9,3.9,0,0,0-.6,1.927v.3a3.968,3.968,0,0,0,.9,2.645,5.117,5.117,0,0,0,3.2,1.519,61.743,61.743,0,0,0,13.24,0A5.127,5.127,0,0,0,22.98,20.51a3.92,3.92,0,0,0,.862-2.564v-.311a4.052,4.052,0,0,0-.587-1.94,8.123,8.123,0,0,1-2-3.771.9.9,0,0,1,0-.15V8.966c-.4-4.1-4.514-6.632-8.1-6.632a8.88,8.88,0,0,0-4.35,1.125,1.185,1.185,0,0,1-1.2.008,1.16,1.16,0,0,1,.049-2.042A11.163,11.163,0,0,1,13.051,0C17.783,0,23.09,3.337,23.692,8.7V11.49A5.781,5.781,0,0,0,25.06,14.2a1.151,1.151,0,0,1,.11.15,6.251,6.251,0,0,1,1.039,3.161l-.042.284a6.382,6.382,0,0,1-1.45,4.246A7.529,7.529,0,0,1,19.9,24.417a62.753,62.753,0,0,1-6.838.374A62.782,62.782,0,0,1,6.226,24.417Z" transform="translate(0)" fill="#200e32"/></svg>