<svg xmlns="http://www.w3.org/2000/svg" width="38.94" height="38.959" viewBox="0 0 38.94 38.959">
  <g id="paint-brush" transform="translate(0 0.126)">
    <path id="Path_29" data-name="Path 29" d="M215.43,1.177a4.041,4.041,0,0,0-2.663-1.293,3.778,3.778,0,0,0-2.815.989L194.282,14.641a5.592,5.592,0,0,0-1.217,1.445A6.553,6.553,0,0,0,192,19.738l8.368,6.694a6.809,6.809,0,0,0,4.26-2.967L215.735,5.817A4.006,4.006,0,0,0,215.43,1.177Z" transform="translate(-177.394)" fill="#00d0d8" opacity="0.4"/>
    <path id="Path_30" data-name="Path 30" d="M13.313,289a7.505,7.505,0,0,0-4.869,2.282,7.588,7.588,0,0,0-2.282,6.238c.152,1.978-1.293,3.575-3.728,3.575a2.434,2.434,0,0,0,0,4.869H6.542c4.108,0,10.118-.609,13.084-3.575a7.542,7.542,0,0,0,2.13-6.618Z" transform="translate(0 -267.132)" fill="#00d0d8"/>
  </g>
</svg>
