<svg xmlns="http://www.w3.org/2000/svg" width="38.795" height="38.774" viewBox="0 0 38.795 38.774">
  <g id="paper-plane" transform="translate(0.095 -0.06)">
    <path id="Path_25" data-name="Path 25" d="M38.691,2.858,33.844,34.366a2.657,2.657,0,0,1-1.212,1.742,2.4,2.4,0,0,1-1.212.3,3.8,3.8,0,0,1-.909-.151L21.2,32.321l-6.741,6.514V29.973a2.315,2.315,0,0,1,.53-1.515L31.42,7.327l-22.267,20L1.427,24.141A2.48,2.48,0,0,1-.088,22.02a2.507,2.507,0,0,1,1.212-2.272L35.055.359A2.432,2.432,0,0,1,37.631.51,2.589,2.589,0,0,1,38.691,2.858Z" transform="translate(0 0)" fill="#0b3a42" opacity="0.4"/>
    <path id="Path_26" data-name="Path 26" d="M144.267,96l-16.511,21.131a2.731,2.731,0,0,0-.454,1.515v8.862L122,116Z" transform="translate(-112.848 -88.673)" fill="#0b3a42"/>
  </g>
</svg>
