<svg xmlns="http://www.w3.org/2000/svg" width="100" height="100" viewBox="0 0 69.999 69.999">
  <path id="Play" d="M35,70A35,35,0,1,1,70,35.022,35.028,35.028,0,0,1,35,70ZM31.015,21.1a4.684,4.684,0,0,0-2.129.507A4.381,4.381,0,0,0,26.992,23.7a22.1,22.1,0,0,0-.608,2.466,53.867,53.867,0,0,0-.573,8.814,62.011,62.011,0,0,0,.507,8.543,3.84,3.84,0,0,1,.084.384,13.688,13.688,0,0,0,.726,2.688,4.235,4.235,0,0,0,3.752,2.3h.135a11.158,11.158,0,0,0,3.141-.945c3.572-1.483,10.633-6.1,13.479-9.185l.2-.2a13.789,13.789,0,0,0,.945-1.08,4.064,4.064,0,0,0,.81-2.46,4.26,4.26,0,0,0-.879-2.64c-.041-.042-.119-.128-.222-.239-.225-.246-.566-.617-.89-.942A51.72,51.72,0,0,0,33.818,21.88,11.745,11.745,0,0,0,31.015,21.1Z" fill="#00d0d8"/>
</svg>
