<svg xmlns="http://www.w3.org/2000/svg" width="29.292" height="30.833" viewBox="0 0 29.292 30.833"><path d="M9.52,26.77a1.527,1.527,0,0,0-.221-.812A1.714,1.714,0,0,0,7,25.35,4.218,4.218,0,0,1,1.45,23.887L.507,22.275a4.01,4.01,0,0,1,1.5-5.417,1.693,1.693,0,0,0,.609-.6,1.608,1.608,0,0,0,.276-1.31,1.65,1.65,0,0,0-.816-1.074,4.008,4.008,0,0,1-1.5-5.415,1.21,1.21,0,0,1,.77-.5,1.232,1.232,0,0,1,.909.178A1.148,1.148,0,0,1,2.6,9.71a1.619,1.619,0,0,0,.624,2.234,3.987,3.987,0,0,1-.055,6.892,1.62,1.62,0,0,0-.624,2.235L3.5,22.681a1.645,1.645,0,0,0,1.021.777A1.681,1.681,0,0,0,5.8,23.277a4.082,4.082,0,0,1,2.038-.527A4.112,4.112,0,0,1,12,26.812a1.674,1.674,0,0,0,1.693,1.639l-.014.026a1.214,1.214,0,0,1,1.045.59,1.156,1.156,0,0,1,0,1.178,1.216,1.216,0,0,1-1.045.588A4.113,4.113,0,0,1,9.52,26.77Zm7.752.122a4.051,4.051,0,0,1,2.076-3.433,4.252,4.252,0,0,1,4.082-.047,1.685,1.685,0,0,0,1.275.176,1.733,1.733,0,0,0,1.027-.771l.942-1.612a1.592,1.592,0,0,0,.173-1.242,1.632,1.632,0,0,0-.784-.992,3.964,3.964,0,0,1-1.511-1.611,4.01,4.01,0,0,1,1.5-5.417,1.251,1.251,0,0,1,1.637.447A1.162,1.162,0,0,1,27.27,14a1.7,1.7,0,0,0-.61.6,1.6,1.6,0,0,0-.173,1.247,1.643,1.643,0,0,0,.784,1A4.009,4.009,0,0,1,28.712,22.4l-.942,1.611a4.217,4.217,0,0,1-5.547,1.462,1.7,1.7,0,0,0-1.691-.015,1.619,1.619,0,0,0-.833,1.437,1.224,1.224,0,0,1-2.427,0Zm-6.317-7.864a4.991,4.991,0,0,1-1.136-5.55,5.2,5.2,0,0,1,4.819-3.147h.017a5.229,5.229,0,0,1,3.669,1.482,4.988,4.988,0,0,1,1.529,3.6,5.073,5.073,0,0,1-3.209,4.713,5.306,5.306,0,0,1-5.687-1.095Zm.909-3.6a2.774,2.774,0,1,0,2.774-2.708A2.744,2.744,0,0,0,11.863,15.423ZM25.732,8.138a1.714,1.714,0,0,0-2.3-.6A4.245,4.245,0,0,1,19.353,7.5a4.046,4.046,0,0,1-2.081-3.422A1.618,1.618,0,0,0,16.8,2.882a1.69,1.69,0,0,0-1.206-.5h-1.9a1.709,1.709,0,0,0-1.211.5A1.628,1.628,0,0,0,12,4.076a3.979,3.979,0,0,1-2.07,3.438,4.177,4.177,0,0,1-4.086-.026L5.79,7.434A1.164,1.164,0,0,1,5.4,5.809a1.226,1.226,0,0,1,1.665-.379A1.774,1.774,0,0,0,7.9,5.66a1.709,1.709,0,0,0,1.217-.434,1.641,1.641,0,0,0,.544-1.149A4.109,4.109,0,0,1,13.695,0h1.9a4.112,4.112,0,0,1,4.16,4.063,1.525,1.525,0,0,0,.222.812A1.671,1.671,0,0,0,21,5.649a1.717,1.717,0,0,0,1.281-.164,4.217,4.217,0,0,1,5.547,1.462,1.19,1.19,0,0,1-.444,1.611,1.239,1.239,0,0,1-.6.157A1.224,1.224,0,0,1,25.732,8.138Z" transform="translate(0)" fill="#200e32"/></svg>