<svg width="22" height="21" viewBox="0 0 22 21" fill="none" xmlns="http://www.w3.org/2000/svg">
<g clip-path="url(#clip0_988_4816)">
<path d="M21.5271 0.177296C19.719 1.22074 17.6754 2.71457 15.7539 4.39921C14.2053 5.75723 12.5536 7.39373 11.0239 9.08525C9.96856 10.2542 8.83074 11.6139 7.80293 12.9359C7.44543 13.3965 6.52074 14.6308 6.23027 15.0382C6.08074 15.2479 5.99824 15.3494 5.98106 15.3442C5.96731 15.3408 4.65934 14.605 3.07637 13.7111L0.197461 12.0832L0.132149 12.1571C0.0977739 12.1984 0.0599614 12.2431 0.0513676 12.2586C0.0358989 12.2861 0.279961 12.5714 6.50356 19.7896L7.00371 20.3706H7.07246H7.14121L7.53137 19.5919C9.45809 15.7568 11.3504 12.5989 13.4972 9.63533C15.8639 6.37092 18.5434 3.36436 21.5581 0.595016C21.7729 0.397329 21.9482 0.230585 21.9482 0.223709C21.9482 0.215115 21.8296 0.0466499 21.8073 0.0243034C21.8039 0.0225849 21.6784 0.0913448 21.5271 0.177296Z" fill="black"/>
</g>
<defs>
<clipPath id="clip0_988_4816">
<rect width="22" height="20.3704" fill="white"/>
</clipPath>
</defs>
</svg>
