<svg xmlns="http://www.w3.org/2000/svg" width="29" height="29" viewBox="0 0 29 29">
  <g id="Group_102" data-name="Group 102" transform="translate(-1307 -531)">
    <circle id="Ellipse_9" data-name="Ellipse 9" cx="14.5" cy="14.5" r="14.5" transform="translate(1307 531)" fill="rgba(124,232,221,0.25)"/>
    <g id="Iconly_Light_Profile" data-name="Iconly/Light/Profile" transform="translate(1313.5 537.5)">
      <g id="Profile" transform="translate(2.667 1.667)">
        <circle id="Ellipse_736" cx="3.185" cy="3.185" r="3.185" transform="translate(1.867 0)" fill="none" stroke="#00d0d8" stroke-linecap="round" stroke-linejoin="round" stroke-miterlimit="10" stroke-width="1.5"/>
        <path id="Path_33945" d="M0,2.011a1.477,1.477,0,0,1,.146-.647A2.7,2.7,0,0,1,2.026.284,11.191,11.191,0,0,1,3.588.064a16.7,16.7,0,0,1,2.923,0,11.32,11.32,0,0,1,1.562.22,2.593,2.593,0,0,1,1.879,1.08,1.513,1.513,0,0,1,0,1.3A2.567,2.567,0,0,1,8.073,3.738a10.478,10.478,0,0,1-1.562.226A17.214,17.214,0,0,1,4.131,4a2.71,2.71,0,0,1-.543-.037,10.282,10.282,0,0,1-1.556-.226A2.58,2.58,0,0,1,.146,2.664,1.519,1.519,0,0,1,0,2.011Z" transform="translate(0 8.79)" fill="none" stroke="#00d0d8" stroke-linecap="round" stroke-linejoin="round" stroke-miterlimit="10" stroke-width="1.5"/>
      </g>
    </g>
  </g>
</svg>
