<svg xmlns="http://www.w3.org/2000/svg" width="51.607" height="51.607" viewBox="0 0 51.607 51.607">
  <path id="wordpress" d="M13.587,24.793,24.148,53.718A22.14,22.14,0,0,1,13.587,24.793Zm35.158,7.9a11.673,11.673,0,0,0-1.821-6.108c-1.124-1.821-2.175-3.371-2.175-5.192a3.831,3.831,0,0,1,3.714-3.933c.094,0,.187.01.291.021A22.133,22.133,0,0,0,15.3,21.641c.52.021,1.009.031,1.425.031,2.31,0,5.9-.281,5.9-.281a.913.913,0,0,1,.146,1.821s-1.2.135-2.528.208L28.31,47.392l4.849-14.525L29.715,23.42c-1.2-.073-2.32-.208-2.32-.208a.913.913,0,0,1,.135-1.821s3.652.281,5.827.281c2.31,0,5.9-.281,5.9-.281a.913.913,0,0,1,.146,1.821s-1.2.135-2.528.208l8,23.8,2.206-7.377c.936-3.059,1.665-5.254,1.665-7.148ZM34.189,35.739,27.55,55.04a22.056,22.056,0,0,0,13.6-.354,1.658,1.658,0,0,1-.156-.3ZM53.229,23.18a17.246,17.246,0,0,1,.146,2.279,20.8,20.8,0,0,1-1.686,7.928l-6.763,19.55a22.157,22.157,0,0,0,8.3-29.758ZM59.607,33.8A25.8,25.8,0,1,1,33.8,8,25.833,25.833,0,0,1,59.607,33.8Zm-1.186,0A24.618,24.618,0,1,0,33.8,58.421,24.647,24.647,0,0,0,58.421,33.8Z" transform="translate(-8 -8)" fill="#0b3a42"/>
</svg>
